# xmcd
#
# Track frame offsets:
#	150
#	11286
#	23925
#	38339
#	60864
#	80832
#	86685
#	99907
#	125527
#	137179
#	151294
#	166759
#	179486
#	189642
#	201049
#	213566
#
# Disc length: 2996 seconds
#
# Revision: 1
# Processed by: cddbd v1.5.1PL2 Copyright (c) Steve Scherf et al.
# Submitted via: audiograbber 1.83.01
#
DISCID=c90bb210
DTITLE=Jan Rust - The Real JGR-Sound
DYEAR=1999
DGENRE=Pop
TTITLE0=Things we said today
TTITLE1=Rain (is such a lonesome sound)
TTITLE2=Cryin' in my sleep
TTITLE3=Highway 51 blues
TTITLE4=Shipwrecked blues
TTITLE5=Scarborough fair
TTITLE6=Harvest
TTITLE7=A man needs a maid/The needle and the damage done  
TTITLE8=Everybody knows
TTITLE9=Nancy
TTITLE10=Emmett Till
TTITLE11=As I went out one morning
TTITLE12=Winter winds
TTITLE13=Did you ever
TTITLE14='Fore day rider
TTITLE15=House of the rising sun
EXTD=
EXTT0=
EXTT1=
EXTT2=
EXTT3=
EXTT4=
EXTT5=
EXTT6=
EXTT7=
EXTT8=
EXTT9=
EXTT10=
EXTT11=
EXTT12=
EXTT13=
EXTT14=
EXTT15=
PLAYORDER=
